<mxfile host="app.diagrams.net" modified="2020-12-24T04:29:53.311Z" agent="5.0 (Windows NT 10.0; Win64; x64) AppleWebKit/537.36 (KHTML, like Gecko) Chrome/87.0.4280.88 Safari/537.36" etag="PXVwBAkS6grCX-RkidXb" version="14.0.4" type="github">
  <diagram id="puR8bFH_dAUYSolfHmQK" name="Page-1">
    <mxGraphModel dx="1013" dy="575" grid="1" gridSize="10" guides="1" tooltips="1" connect="1" arrows="1" fold="1" page="1" pageScale="1" pageWidth="850" pageHeight="1100" background="#09555B" math="0" shadow="0">
      <root>
        <mxCell id="0" />
        <mxCell id="1" parent="0" />
        <mxCell id="63Jptf02z77UDxQiLoMV-1" value="Home | Signup | Login&amp;nbsp;&amp;nbsp;" style="whiteSpace=wrap;html=1;align=right;fillColor=#B1DDF0;strokeColor=#BAC8D3;fontColor=#182E3E;" vertex="1" parent="1">
          <mxGeometry x="40" y="10" width="760" height="60" as="geometry" />
        </mxCell>
        <mxCell id="63Jptf02z77UDxQiLoMV-2" value="Welcome (User)&lt;br&gt;&quot;Company Blurb&quot;&lt;br&gt;Register: Owner&lt;br&gt;Login" style="whiteSpace=wrap;html=1;fillColor=#B1DDF0;strokeColor=#BAC8D3;fontColor=#182E3E;" vertex="1" parent="1">
          <mxGeometry x="40" y="100" width="750" height="180" as="geometry" />
        </mxCell>
        <mxCell id="63Jptf02z77UDxQiLoMV-3" value="SafelyRent" style="whiteSpace=wrap;html=1;fillColor=#B1DDF0;strokeColor=#BAC8D3;fontStyle=1;fontSize=20;fontColor=#182E3E;" vertex="1" parent="1">
          <mxGeometry x="40" y="10" width="210" height="60" as="geometry" />
        </mxCell>
        <mxCell id="63Jptf02z77UDxQiLoMV-4" value="Home | My Portal | Logout&amp;nbsp;&amp;nbsp;" style="whiteSpace=wrap;html=1;align=right;fillColor=#B1DDF0;strokeColor=#BAC8D3;fontColor=#182E3E;" vertex="1" parent="1">
          <mxGeometry x="40" y="390" width="760" height="60" as="geometry" />
        </mxCell>
        <mxCell id="63Jptf02z77UDxQiLoMV-5" value="" style="endArrow=none;dashed=1;html=1;strokeColor=#EEEEEE;fontColor=#FFFFFF;" edge="1" parent="1">
          <mxGeometry width="50" height="50" relative="1" as="geometry">
            <mxPoint x="20" y="350" as="sourcePoint" />
            <mxPoint x="840" y="350" as="targetPoint" />
          </mxGeometry>
        </mxCell>
        <mxCell id="63Jptf02z77UDxQiLoMV-6" value="SafelyRent" style="whiteSpace=wrap;html=1;fillColor=#B1DDF0;strokeColor=#BAC8D3;fontStyle=1;fontSize=20;fontColor=#182E3E;" vertex="1" parent="1">
          <mxGeometry x="40" y="390" width="210" height="60" as="geometry" />
        </mxCell>
        <mxCell id="63Jptf02z77UDxQiLoMV-15" style="edgeStyle=orthogonalEdgeStyle;curved=0;rounded=1;sketch=0;orthogonalLoop=1;jettySize=auto;html=1;exitX=1;exitY=0.5;exitDx=0;exitDy=0;strokeColor=#EEEEEE;fontSize=15;fontColor=#FFFFFF;" edge="1" parent="1" source="63Jptf02z77UDxQiLoMV-7">
          <mxGeometry relative="1" as="geometry">
            <mxPoint x="800" y="570" as="targetPoint" />
          </mxGeometry>
        </mxCell>
        <mxCell id="63Jptf02z77UDxQiLoMV-7" value="Welcome (Property Owner)&lt;br&gt;Properties | Tenants" style="whiteSpace=wrap;html=1;fillColor=#B1DDF0;strokeColor=#BAC8D3;fontColor=#182E3E;" vertex="1" parent="1">
          <mxGeometry x="40" y="480" width="750" height="180" as="geometry" />
        </mxCell>
        <mxCell id="63Jptf02z77UDxQiLoMV-8" value="My Portal" style="whiteSpace=wrap;html=1;sketch=0;strokeColor=#BAC8D3;fillColor=#B1DDF0;fontColor=#182E3E;fontStyle=1;fontSize=15;" vertex="1" parent="1">
          <mxGeometry x="50" y="500" width="160" height="40" as="geometry" />
        </mxCell>
        <mxCell id="63Jptf02z77UDxQiLoMV-9" value="&lt;b&gt;List of Tenant Database&lt;/b&gt;&lt;br&gt;Tenant Name:&amp;nbsp;&lt;br&gt;Tenant Username:&amp;nbsp;&lt;br&gt;Tenant Address:&amp;nbsp;&lt;br&gt;&lt;div&gt;Payment Timeliness Score:&amp;nbsp;&lt;/div&gt;&lt;div&gt;Cleanliness Score:&amp;nbsp;&lt;/div&gt;&lt;div&gt;Property Upkeep:&amp;nbsp;&lt;/div&gt;&lt;div&gt;Communicators:&amp;nbsp;&lt;/div&gt;&lt;div&gt;Friendliness:&amp;nbsp;&lt;/div&gt;" style="whiteSpace=wrap;html=1;fillColor=#B1DDF0;strokeColor=#BAC8D3;fontColor=#182E3E;" vertex="1" parent="1">
          <mxGeometry x="40" y="840" width="750" height="180" as="geometry" />
        </mxCell>
        <mxCell id="63Jptf02z77UDxQiLoMV-11" value="" style="endArrow=none;dashed=1;html=1;strokeColor=#EEEEEE;fontSize=15;fontColor=#FFFFFF;" edge="1" parent="1">
          <mxGeometry width="50" height="50" relative="1" as="geometry">
            <mxPoint x="10" y="710" as="sourcePoint" />
            <mxPoint x="850" y="710" as="targetPoint" />
          </mxGeometry>
        </mxCell>
        <mxCell id="63Jptf02z77UDxQiLoMV-12" value="Home | My Portal | Logout&amp;nbsp;&amp;nbsp;" style="whiteSpace=wrap;html=1;align=right;fillColor=#B1DDF0;strokeColor=#BAC8D3;fontColor=#182E3E;" vertex="1" parent="1">
          <mxGeometry x="50" y="750" width="760" height="60" as="geometry" />
        </mxCell>
        <mxCell id="63Jptf02z77UDxQiLoMV-13" value="SafelyRent" style="whiteSpace=wrap;html=1;fillColor=#B1DDF0;strokeColor=#BAC8D3;fontStyle=1;fontSize=20;fontColor=#182E3E;" vertex="1" parent="1">
          <mxGeometry x="50" y="750" width="210" height="60" as="geometry" />
        </mxCell>
        <mxCell id="63Jptf02z77UDxQiLoMV-14" value="My Tenants" style="whiteSpace=wrap;html=1;sketch=0;strokeColor=#BAC8D3;fillColor=#B1DDF0;fontColor=#182E3E;fontStyle=1;fontSize=15;" vertex="1" parent="1">
          <mxGeometry x="75" y="860" width="160" height="40" as="geometry" />
        </mxCell>
        <mxCell id="63Jptf02z77UDxQiLoMV-16" value="Home" style="whiteSpace=wrap;html=1;sketch=0;strokeColor=#BAC8D3;fillColor=#B1DDF0;fontColor=#182E3E;fontStyle=1;fontSize=15;" vertex="1" parent="1">
          <mxGeometry x="40" y="110" width="160" height="40" as="geometry" />
        </mxCell>
        <mxCell id="63Jptf02z77UDxQiLoMV-21" value="" style="endArrow=none;dashed=1;html=1;strokeColor=#EEEEEE;fontColor=#FFFFFF;" edge="1" parent="1">
          <mxGeometry width="50" height="50" relative="1" as="geometry">
            <mxPoint x="60" y="1400" as="sourcePoint" />
            <mxPoint x="880" y="1400" as="targetPoint" />
          </mxGeometry>
        </mxCell>
        <mxCell id="63Jptf02z77UDxQiLoMV-27" value="" style="endArrow=none;dashed=1;html=1;strokeColor=#EEEEEE;fontSize=15;fontColor=#FFFFFF;" edge="1" parent="1">
          <mxGeometry width="50" height="50" relative="1" as="geometry">
            <mxPoint x="50" y="1760" as="sourcePoint" />
            <mxPoint x="890" y="1760" as="targetPoint" />
          </mxGeometry>
        </mxCell>
        <mxCell id="63Jptf02z77UDxQiLoMV-32" value="Create a Tenant" style="rounded=1;whiteSpace=wrap;html=1;sketch=0;strokeColor=#BAC8D3;fillColor=#B1DDF0;fontSize=15;labelBackgroundColor=#006666;labelBorderColor=#000000;fontColor=#FFFFFF;" vertex="1" parent="1">
          <mxGeometry x="85" y="940" width="140" as="geometry" />
        </mxCell>
      </root>
    </mxGraphModel>
  </diagram>
</mxfile>
